<?xml version="1.0" encoding="UTF-8"?>
<svg xmlns="http://www.w3.org/2000/svg" version="1.1" viewBox="0 0 828 828">
  <defs>
    <style>
      .cls-1 {
        fill: #fff;
      }

      .cls-2 {
        fill: #0a0a0a;
      }
    </style>
  </defs>
  <!-- Generator: Adobe Illustrator 28.7.1, SVG Export Plug-In . SVG Version: 1.2.0 Build 142)  -->
  <g>
    <g id="_圖層_1" data-name="圖層_1">
      <rect class="cls-2" width="828" height="828"/>
      <path class="cls-1" d="M813,452.4c-32.8.8-65.7-.2-98.6.2-61,.8-124.6-1.4-179.7-30.4-1.4-.9-2.6-.9-4.1-.1-15,7.4-30.7,13.2-46.9,17.1-54.7,13.9-114.1,7.4-164.8-17.3-1.3-.7-2.2-.6-3.5,0-8.7,4.6-17.8,8.5-27.1,11.7-19.6,7.3-40.1,11.7-60.7,15.2-63.5,6.4-127.8,3.1-191.4,3.6,12.8-3.7,26.9-2.9,40-6.2,26.1-5.2,51.3-14,74.1-27.8,17.4-10.1,32.9-22.9,47.4-36.8,12.1-11.4,26.6-25.8,44.8-19.5,27.7,11,46.4,35.9,73.7,48.3,30.7-18.1,52.9-47.9,68.5-79.4,8.3-15.4,13-33.3,25.2-46.3,14.7-13.9,33.1-2.6,39.6,13.5,14,30.2,28,61.2,51.4,85.5,5,5.2,27.6,28,33.9,25.4,16-8.1,30.1-19.3,44.1-30.3,8.4-6.6,16.9-13.9,27.4-16.8,23.5-6.6,40.1,15.9,55.9,29.3,10.7,9.4,22.1,18,34.3,25.4,22.3,13.5,46.7,23.4,72.2,28.6,12.7,2.1,25.5,5,38.4,5.5,1.8,0,3.7,0,5.9,1.6h0ZM521.9,415.6c-26.2-18.3-46.9-42.8-62-70.8-10.5-16.9-15-37.7-28.3-52.7-26.1-19.8-29.6,76.1-103.9,123.4,61,27.1,133.4,28.5,194.2.1h0ZM306.1,416.3c-21.6-11.2-39.3-28.1-59.7-41.2-12.7-9-27.3-.2-36.5,9.6-10,9.4-20.1,18.6-31.1,26.8-20.2,16.1-44.6,26.1-68.2,34.9,66.3-1.1,134.1-1.9,195.6-30.1h0ZM737.9,446.2c0-.2,0-.4,0-.6-25.4-7.3-48.8-20.1-69.8-35.9-18.1-10.6-39.3-46.2-61.7-36.5-12.1,5.1-21.6,14.7-32,22.5-9.4,7.8-20.3,13.7-30.3,20.3,60.2,28.7,128.4,28.8,193.8,30.2Z"/>
    </g>
  </g>
</svg>