<svg xmlns="http://www.w3.org/2000/svg" viewBox="395 283 828 828">
  <rect x="395" y="283" width="828" height="828" fill="#0A0A0A"/>
  <path d="M952.09,622.65c-35.94.85-72.11-.17-108.16.27-66.95.91-136.68-1.53-197.21-33.38-1.53-.95-2.89-.94-4.48-.14-16.41,8.11-33.69,14.51-51.5,18.77-60.03,15.27-125.2,8.11-180.88-18.93-1.42-.73-2.45-.61-3.79.1-9.57,5.07-19.52,9.31-29.75,12.85-21.51,8.05-44.03,12.85-66.64,16.66-69.68,7.02-140.23,3.43-210.06,3.92,14.09-4.04,29.5-3.15,43.89-6.81,28.63-5.72,56.27-15.34,81.34-30.5,19.14-11.08,36.14-25.09,52.04-40.34,13.26-12.55,29.21-28.27,49.13-21.4,30.39,12.02,50.93,39.44,80.92,52.96,33.66-19.89,58.08-52.53,75.14-87.16,9.12-16.91,14.27-36.54,27.63-50.77,16.1-15.23,36.34-2.83,43.5,14.86,15.34,33.19,30.7,67.13,56.44,93.77,5.48,5.71,30.26,30.74,37.22,27.9,17.54-8.93,32.98-21.13,48.34-33.29,9.2-7.26,18.53-15.3,30.06-18.46,25.75-7.25,44.01,17.42,61.29,32.2,11.75,10.32,24.23,19.72,37.61,27.84,24.43,14.76,51.26,25.64,79.26,31.33,13.99,2.34,27.94,5.48,42.16,6.01,1.99.06,4.08.03,6.49,1.75ZM632.65,582.25c-28.75-20.13-51.43-46.96-68-77.7-11.53-18.57-16.5-41.37-31.08-57.85-28.69-21.73-32.44,83.49-114.06,135.39,66.93,29.75,146.35,31.28,213.13.16ZM395.9,582.94c-23.75-12.33-43.07-30.8-65.47-45.18-13.97-9.84-29.92-.22-40.1,10.49-10.96,10.3-22.05,20.44-34.14,29.42-22.17,17.72-48.91,28.63-74.86,38.34,72.72-1.2,147.19-2.06,214.58-33.07ZM869.63,615.77c0-.23.02-.45.03-.68-27.84-7.99-53.59-22.05-76.64-39.42-19.82-11.58-43.1-50.74-67.66-40.02-13.31,5.64-23.65,16.16-35.12,24.68-10.3,8.56-22.29,15.01-33.23,22.27,66.1,31.45,140.9,31.62,212.62,33.17Z" fill="#FFFFFF"/>
</svg>
