<?xml version="1.0" encoding="UTF-8"?>
<svg xmlns="http://www.w3.org/2000/svg" version="1.1" viewBox="0 0 6000 6000">
  <defs>
    <style>
      .cls-1 {
        fill: #231815;
      }
    </style>
  </defs>
  <!-- Generator: Adobe Illustrator 28.7.1, SVG Export Plug-In . SVG Version: 1.2.0 Build 142)  -->
  <g>
    <g id="_圖層_1" data-name="圖層_1">
      <path d="M3440.09,2994.84c-35.94.85-72.11-.17-108.16.27-66.95.91-136.68-1.53-197.21-33.38-1.53-.95-2.89-.94-4.48-.14-16.41,8.11-33.69,14.51-51.5,18.77-60.03,15.27-125.2,8.11-180.88-18.93-1.42-.73-2.45-.61-3.79.1-9.57,5.07-19.52,9.31-29.75,12.85-21.51,8.05-44.03,12.85-66.64,16.66-69.68,7.02-140.23,3.43-210.06,3.92,14.09-4.04,29.5-3.15,43.89-6.81,28.63-5.72,56.27-15.34,81.34-30.5,19.14-11.08,36.14-25.09,52.04-40.34,13.26-12.55,29.21-28.27,49.13-21.4,30.39,12.02,50.93,39.44,80.92,52.96,33.66-19.89,58.08-52.53,75.14-87.16,9.12-16.91,14.27-36.54,27.63-50.77,16.1-15.23,36.34-2.83,43.5,14.86,15.34,33.19,30.7,67.13,56.44,93.77,5.48,5.71,30.26,30.74,37.22,27.9,17.54-8.93,32.98-21.13,48.34-33.29,9.2-7.26,18.53-15.3,30.06-18.46,25.75-7.25,44.01,17.42,61.29,32.2,11.75,10.32,24.23,19.72,37.61,27.84,24.43,14.76,51.26,25.64,79.26,31.33,13.99,2.34,27.94,5.48,42.16,6.01,1.99.06,4.08.03,6.49,1.75ZM3120.65,2954.44c-28.75-20.13-51.43-46.96-68-77.7-11.53-18.57-16.5-41.37-31.08-57.85-28.69-21.73-32.44,83.49-114.06,135.39,66.93,29.75,146.35,31.28,213.13.16ZM2883.9,2955.13c-23.75-12.33-43.07-30.8-65.47-45.18-13.97-9.84-29.92-.22-40.1,10.49-10.96,10.3-22.05,20.44-34.14,29.42-22.17,17.72-48.91,28.63-74.86,38.34,72.72-1.2,147.19-2.06,214.58-33.07ZM3357.63,2987.97c0-.23.02-.45.03-.68-27.84-7.99-53.59-22.05-76.64-39.42-19.82-11.58-43.1-50.74-67.66-40.02-13.31,5.64-23.65,16.16-35.12,24.68-10.3,8.56-22.29,15.01-33.23,22.27,66.1,31.45,140.9,31.62,212.62,33.17Z"/>
      <g>
        <path class="cls-1" d="M2589.38,3111.99v-90.44c0-2.66,1.54-4.2,4.2-4.2h16.38c2.66,0,4.2,1.54,4.2,4.2v90.44c0,2.66-1.54,4.2-4.2,4.2h-16.38c-2.66,0-4.2-1.54-4.2-4.2Z"/>
        <path class="cls-1" d="M2631.8,3111.99v-90.44c0-2.66,1.54-4.2,4.2-4.2h16.1c2.24,0,3.78.84,5.18,2.52l45.5,58.1v-56.42c0-2.66,1.54-4.2,4.2-4.2h16.52c2.66,0,4.2,1.54,4.2,4.2v90.44c0,2.66-1.54,4.2-4.2,4.2h-16.1c-2.24,0-3.78-.84-5.18-2.52l-45.5-57.82v56.14c0,2.66-1.54,4.2-4.2,4.2h-16.52c-2.66,0-4.2-1.54-4.2-4.2Z"/>
        <path class="cls-1" d="M2745.34,3111.99v-90.44c0-2.66,1.54-4.2,4.2-4.2h16.52c2.66,0,4.2,1.54,4.2,4.2v70.84h51.1c2.66,0,4.2,1.54,4.2,4.2v15.4c0,2.66-1.54,4.2-4.2,4.2h-71.82c-2.66,0-4.2-1.54-4.2-4.2Z"/>
        <path class="cls-1" d="M2836.06,3111.99v-90.44c0-2.66,1.54-4.2,4.2-4.2h75.18c2.66,0,4.2,1.54,4.2,4.2v15.4c0,2.66-1.54,4.2-4.2,4.2h-54.6v14.56h33.18c2.66,0,4.2,1.54,4.2,4.2v13.16c0,2.66-1.54,4.2-4.2,4.2h-33.18v15.12h54.6c2.66,0,4.2,1.54,4.2,4.2v15.4c0,2.66-1.54,4.2-4.2,4.2h-75.18c-2.66,0-4.2-1.54-4.2-4.2Z"/>
        <path class="cls-1" d="M2958.14,3111.99v-70.7h-26.74c-2.66,0-4.2-1.54-4.2-4.2v-15.54c0-2.66,1.54-4.2,4.2-4.2h78.54c2.66,0,4.2,1.54,4.2,4.2v15.54c0,2.66-1.54,4.2-4.2,4.2h-26.74v70.7c0,2.66-1.54,4.2-4.2,4.2h-16.66c-2.66,0-4.2-1.54-4.2-4.2Z"/>
        <path class="cls-1" d="M3081.34,3112.69l-29.68-90.58c-.98-2.8.42-4.76,3.5-4.76h17.64c2.38,0,3.92.98,4.62,3.5l17.64,62.86,16.1-62.72c.56-2.38,2.24-3.64,4.76-3.64h17.36c2.52,0,4.2,1.26,4.76,3.64l16.1,62.72,17.64-62.86c.7-2.52,2.24-3.5,4.62-3.5h17.64c3.08,0,4.48,1.96,3.5,4.76l-29.68,90.58c-.7,2.38-2.38,3.5-4.76,3.5h-18.06c-2.52,0-4.2-1.26-4.76-3.64l-15.68-60.48-15.68,60.48c-.56,2.38-2.24,3.64-4.76,3.64h-18.06c-2.38,0-4.06-1.12-4.76-3.5Z"/>
        <path class="cls-1" d="M3206.5,3111.99v-90.44c0-2.66,1.54-4.2,4.2-4.2h16.38c2.66,0,4.2,1.54,4.2,4.2v90.44c0,2.66-1.54,4.2-4.2,4.2h-16.38c-2.66,0-4.2-1.54-4.2-4.2Z"/>
        <path class="cls-1" d="M3325.49,3090.85l14.14,20.3c1.96,2.94.7,5.04-2.66,5.04h-18.9c-2.24,0-3.92-.84-5.04-2.8l-12.32-19.74h-26.88v18.34c0,2.66-1.54,4.2-4.2,4.2h-16.52c-2.66,0-4.2-1.54-4.2-4.2v-90.44c0-2.66,1.54-4.2,4.2-4.2h50.82c28,0,40.04,13.16,40.04,37.1v2.66c0,16.1-5.32,28.42-18.48,33.74ZM3273.83,3070.13h28c10.5,0,17.08-1.4,17.08-13.3v-2.24c0-11.9-6.16-13.44-17.08-13.44h-28v28.98Z"/>
        <path class="cls-1" d="M3358.39,3111.99v-90.44c0-2.66,1.54-4.2,4.2-4.2h75.18c2.66,0,4.2,1.54,4.2,4.2v15.4c0,2.66-1.54,4.2-4.2,4.2h-54.6v14.56h33.18c2.66,0,4.2,1.54,4.2,4.2v13.16c0,2.66-1.54,4.2-4.2,4.2h-33.18v15.12h54.6c2.66,0,4.2,1.54,4.2,4.2v15.4c0,2.66-1.54,4.2-4.2,4.2h-75.18c-2.66,0-4.2-1.54-4.2-4.2Z"/>
      </g>
    </g>
  </g>
</svg>